<?xml version="1.0" encoding="UTF-8"?>
<svg width="44px" height="44px" viewBox="0 0 44 44" version="1.1" xmlns="http://www.w3.org/2000/svg" xmlns:xlink="http://www.w3.org/1999/xlink">
    <!-- Generator: Sketch 52.4 (67378) - http://www.bohemiancoding.com/sketch -->
    <title>Facebook</title>
    <desc>Created with Sketch.</desc>
    <g id="Symbols" stroke="none" stroke-width="1" fill="none" fill-rule="evenodd">
        <g id="Socialmedia/5" transform="translate(-2.000000, 0.000000)">
            <g id="Facebook" transform="translate(2.000000, 0.000000)">
                <rect id="Rectangle-9-Copy-13" x="0" y="0" width="44" height="44"></rect>
                <path d="M32.6752543,10 L11.3245658,10 C10.5928624,10 10,10.5929523 10,11.3245658 L10,32.6753442 C10,33.4068679 10.5928624,34 11.3245658,34 L22.8190637,34 L22.8190637,24.7059181 L19.6914517,24.7059181 L19.6914517,21.0838195 L22.8190637,21.0838195 L22.8190637,18.4126567 C22.8190637,15.3128309 24.7123026,13.6248862 27.4776148,13.6248862 C28.8021806,13.6248862 29.9406958,13.7234418 30.2725117,13.7675041 L30.2725117,17.0070702 L28.3545439,17.0079694 C26.8506716,17.0079694 26.559411,17.7225875 26.559411,18.7712696 L26.559411,21.0838195 L30.1461698,21.0838195 L29.6791098,24.7059181 L26.559411,24.7059181 L26.559411,34 L32.6752543,34 C33.406688,34 33.9998202,33.4068679 33.9998202,32.6753442 L33.9998202,11.3245658 C33.9998202,10.5929523 33.406688,10 32.6752543,10" fill="#00253E"></path>
            </g>
        </g>
    </g>
</svg>