<?xml version="1.0" encoding="UTF-8"?>
<svg width="13px" height="24px" viewBox="0 0 13 24" version="1.1" xmlns="http://www.w3.org/2000/svg" xmlns:xlink="http://www.w3.org/1999/xlink">
    <!-- Generator: Sketch 52.4 (67378) - http://www.bohemiancoding.com/sketch -->
    <title>Icon Navy - Mobile Phone - 24x24</title>
    <desc>Created with Sketch.</desc>
    <g id="Symbols" stroke="none" stroke-width="1" fill="none" fill-rule="evenodd">
        <g id="Icon-Navy---Mobile-Phone---24x24" fill="#00253E">
            <path d="M1.21876904,18.2815356 L11.781231,18.2815356 L11.781231,4.87507617 L1.21876904,4.87507617 L1.21876904,3.65630713 L11.781231,3.65630713 L11.781231,2.43510055 C11.781231,1.76599634 11.2352224,1.21876904 10.5636807,1.21876904 L2.43631932,1.21876904 C1.76477757,1.21876904 1.21876904,1.76355881 1.21876904,2.43510055 L1.21876904,18.2815356 Z M1.21876904,19.5003047 L1.21876904,21.567337 C1.21876904,22.2352224 1.76477757,22.7824497 2.43631932,22.7824497 L10.5636807,22.7824497 C11.2352224,22.7824497 11.781231,22.23766 11.781231,21.567337 L11.781231,19.5003047 L1.21876904,19.5003047 Z M2.43631932,8.8817842e-16 L10.5636807,0 C11.9079829,0 13,1.0944546 13,2.43510055 L13,21.567337 C13,22.9116392 11.9092017,24 10.5636807,24 L2.43631932,24 C1.09201706,24 -7.10542736e-15,22.9067642 -7.10542736e-15,21.567337 L-7.10542736e-15,2.43510055 C-7.10542736e-15,1.08836076 1.09079829,8.8817842e-16 2.43631932,8.8817842e-16 Z M6,21.1093845 C6,20.7730043 6.27300427,20.5 6.60938452,20.5 C6.94576478,20.5 7.21876904,20.7730043 7.21876904,21.1093845 C7.21876904,21.4469835 6.94576478,21.718769 6.60938452,21.718769 C6.27300427,21.718769 6,21.4469835 6,21.1093845 Z"></path>
        </g>
    </g>
</svg>