<?xml version="1.0" encoding="UTF-8"?>
<svg width="44px" height="44px" viewBox="0 0 44 44" version="1.1" xmlns="http://www.w3.org/2000/svg" xmlns:xlink="http://www.w3.org/1999/xlink">
    <!-- Generator: Sketch 52.4 (67378) - http://www.bohemiancoding.com/sketch -->
    <title>Instagram</title>
    <desc>Created with Sketch.</desc>
    <g id="Symbols" stroke="none" stroke-width="1" fill="none" fill-rule="evenodd">
        <g id="Socialmedia/5" transform="translate(-138.000000, 0.000000)">
            <g id="Instagram" transform="translate(138.000000, 0.000000)">
                <rect id="Rectangle-9-Copy-10" x="0" y="0" width="44" height="44"></rect>
                <path d="M31.852,27.3788235 C31.852,29.8388235 29.8811765,31.8512941 27.4727059,31.8512941 L16.528,31.8512941 C14.1188235,31.8512941 12.1487059,29.8388235 12.1487059,27.3788235 L12.1487059,16.6204706 C12.1487059,14.1604706 14.1188235,12.148 16.528,12.148 L27.4727059,12.148 C29.8811765,12.148 31.852,14.1604706 31.852,16.6204706 L31.852,27.3788235 Z M27.6738824,10 L16.3261176,10 C12.8468235,10 10,12.9068235 10,16.4602353 L10,27.5390588 C10,31.0924706 12.8468235,34 16.3261176,34 L27.6738824,34 C31.1531765,34 34,31.0924706 34,27.5390588 L34,16.4602353 C34,12.9068235 31.1531765,10 27.6738824,10 L27.6738824,10 Z" id="Fill-1-Copy-5" fill="#00253E"></path>
                <path d="M22,25.8709123 C19.861956,25.8709123 18.128919,24.1383655 18.128919,22.0003436 C18.128919,19.8623217 19.861956,18.1290877 22,18.1290877 C24.138044,18.1290877 25.871081,19.8623217 25.871081,21.9996564 C25.871081,24.1383655 24.138044,25.8709123 22,25.8709123 M22,16 C18.6862424,16 16,18.6864441 16,21.9996564 C16,25.3135559 18.6862424,28 22,28 C25.3137576,28 28,25.3135559 28,22.0003436 C28,18.6864441 25.3137576,16 22,16" id="Fill-4-Copy-2" fill="#00253E"></path>
                <path d="M30,15.5 C30,16.3287671 29.3284974,17 28.5,17 C27.6715026,17 27,16.3287671 27,15.5 C27,14.6712329 27.6715026,14 28.5,14 C29.3284974,14 30,14.6712329 30,15.5" id="Fill-6-Copy-4" fill="#00253E"></path>
            </g>
        </g>
    </g>
</svg>