<?xml version="1.0" encoding="UTF-8"?>
<svg width="140px" height="30px" viewBox="0 0 140 30" version="1.1" xmlns="http://www.w3.org/2000/svg" xmlns:xlink="http://www.w3.org/1999/xlink">
    <!-- Generator: Sketch 52.4 (67378) - http://www.bohemiancoding.com/sketch -->
    <title>Group</title>
    <desc>Created with Sketch.</desc>
    <g id="Symbols" stroke="none" stroke-width="1" fill="none" fill-rule="evenodd">
        <g id="logo_black" fill="#000000">
            <g id="Group">
                <polygon id="Fill-1" points="109.703062 6.7649792 104.500468 13.4030887 103.858414 13.4030887 106.595095 6.7649792"></polygon>
                <path d="M6.78243035,23.3408294 C4.9702576,23.3408294 3.3694085,22.8901535 2.19199623,22.2871513 L1.0143208,23.3408294 L0.470616337,23.3408294 L0.107708085,16.6542281 L0.741942231,16.5927723 C2.64464467,20.9324973 4.87946474,22.3173539 6.96243705,22.3173539 C9.13751806,22.3173539 10.4057232,20.9022947 10.4057232,19.0037307 C10.4057232,17.1949866 9.71096046,16.3214739 6.87269687,15.1464599 C5.90634509,14.7551388 4.78919822,14.3627672 3.85258439,13.9113034 C1.73855829,12.8555243 0.621148259,11.1983187 0.621148259,8.99746565 C0.621148259,5.41175603 3.73179042,3.24215615 6.78243035,3.24215615 C8.29169708,3.24215615 9.3188406,3.66446781 10.3154567,4.23595423 L11.4926058,3.21195352 L12.0063091,3.21195352 L12.5202756,9.1182762 L11.9163058,9.20993463 C10.2546649,5.8947356 8.47380913,4.2672074 6.51163079,4.2672074 C4.78919822,4.2672074 3.64126073,5.41175603 3.64126073,7.18950952 C3.64126073,8.60693242 4.24575693,9.69081314 6.38873148,10.6260444 C7.44587611,11.1074481 8.68513279,11.5308103 9.80201649,12.072882 C12.2473707,13.2489464 13.3955714,14.7837657 13.3955714,17.0140335 C13.3955714,20.9913268 10.0433413,23.3408294 6.78243035,23.3408294" id="Fill-2"></path>
                <path d="M22.6362313,23.3712158 C18.0457972,23.3712158 15.782555,20.0883205 15.782555,16.0808245 C15.782555,12.3735164 18.3787043,8.81748419 23.0288775,8.81748419 C27.6190484,8.81748419 29.8243937,12.0728032 29.8243937,16.0503592 C29.8243937,19.7878699 27.287194,23.3712158 22.6362313,23.3712158 M22.7575516,9.66079435 C20.6435255,9.66079435 19.3450561,12.0110848 19.3450561,16.1401792 C19.3450561,20.2086058 20.735371,22.5281683 22.8783456,22.5281683 C25.0829014,22.5281683 26.2913674,20.1781405 26.2913674,16.0503592 C26.2913674,11.9814074 24.9918453,9.66079435 22.7575516,9.66079435" id="Fill-4"></path>
                <path d="M36.3774799,23.2520861 C33.9921279,23.2520861 33.2373629,22.0783854 33.2373629,19.9082603 L33.2373629,10.8965812 L31.0025429,10.8965812 L31.0025429,10.4745322 L33.7802779,8.2757802 L35.9858864,5.41178229 L36.4385348,5.41178229 L36.4385348,9.33103408 L41.0292321,9.33103408 L41.0292321,10.8965812 L36.4385348,10.8965812 L36.4385348,18.7017306 C36.4385348,19.9082603 36.6185415,20.6307599 37.2240904,21.0522836 C37.7375305,21.41419 38.4320301,21.5344753 39.4281198,21.5344753 C39.911822,21.5344753 40.5157919,21.5029595 41.0892343,21.47407 L41.1187091,21.8963817 C39.94156,22.6186187 38.0083301,23.2520861 36.3774799,23.2520861" id="Fill-6"></path>
                <path d="M50.4811104,11.1074219 C49.3331729,11.1074219 48.4568245,11.3183151 47.3404671,11.8624878 L47.3404671,21.835136 L49.0305301,22.4678156 L49.0305301,22.8901272 L42.2060654,22.8901272 L42.2060654,22.4678156 L44.1085046,21.835136 L44.1085046,3.63318838 L42.025006,2.27748392 L42.025006,1.97677071 L47.2183573,0.560135707 L47.3404671,0.650218355 L47.3404671,11.1982924 L47.4607348,11.2584351 C49.2434327,9.57155212 50.8742829,8.81753672 52.5040805,8.81753672 C55.2226028,8.81753672 56.3700139,10.8671139 56.3700139,13.0059859 L56.3700139,21.835136 L58.2732427,22.4678156 L58.2732427,22.8901272 L51.4464095,22.8901272 L51.4464095,22.4678156 L53.1393673,21.835136 L53.1393673,14.2424556 C53.1393673,12.2837489 52.3530222,11.1074219 50.4811104,11.1074219" id="Fill-8"></path>
                <path d="M62.7444882,15.0563773 C62.7444882,18.8826575 63.8311076,21.3839611 67.2436031,21.3839611 C68.7541857,21.3839611 69.9921265,21.0837732 71.8032466,20.4211536 L71.9840428,20.7814842 C70.1431848,22.3769713 68.0896872,23.3712946 66.155931,23.3712946 C62.0199875,23.3712946 59.3004125,20.5414388 59.3004125,16.3516765 C59.3004125,12.0416288 62.5626393,8.81756298 66.246987,8.81756298 C70.2337144,8.81756298 72.1661548,11.4998198 72.1348379,15.0563773 L62.7444882,15.0563773 Z M68.7541857,14.0313261 C68.632339,11.1983187 67.816256,9.66087314 66.035137,9.66087314 C64.2829665,9.66087314 62.9244949,11.4998198 62.7739629,14.301574 L68.7541857,14.0313261 L68.7541857,14.0313261 Z" id="Fill-10"></path>
                <path d="M80.1686897,23.3712158 C78.5991576,23.3712158 76.5148694,23.01036 75.0653417,22.5896241 L75.0653417,3.63313586 L72.9526315,2.2774314 L72.9526315,1.97566765 L78.1754576,0.560083181 L78.2983569,0.650165829 L78.2983569,10.7462509 L78.4175719,10.8066561 C79.4744533,9.75192752 80.923981,8.81748419 82.7964191,8.81748419 C85.6654734,8.81748419 88.263728,11.4393357 88.263728,15.7493834 C88.263728,20.05733 85.0004486,23.3712158 80.1686897,23.3712158 M80.6818667,10.9277293 C79.7765698,10.9277293 79.0215417,11.1073694 78.2983569,11.4104463 L78.2983569,20.9615707 C79.232339,21.9251661 80.4408051,22.3477404 81.5882163,22.3477404 C83.369072,22.3477404 84.848864,20.751728 84.848864,16.5028735 C84.848864,12.7658881 83.2490676,10.9277293 80.6818667,10.9277293" id="Fill-12"></path>
                <path d="M96.537273,23.8238877 C95.0280062,27.5311958 93.6084797,29.1579361 91.7344625,29.1579361 C90.1357188,29.1579361 89.379638,28.2245433 89.379638,27.2601599 C89.379638,26.3257166 90.2259853,25.543337 91.1918107,25.543337 C92.2194806,25.543337 92.8223978,26.085146 93.547688,26.987023 C94.1211304,26.3556566 94.8153667,25.2696748 95.209592,24.4276778 L95.7219795,23.281816 L90.3778331,10.4144421 L88.533817,9.69089193 L88.533817,9.30009607 L95.903302,9.30009607 L95.903302,9.69089193 L93.9703353,10.4144421 L97.2320357,19.24438 L97.3828308,19.24438 L100.341888,10.6261232 L98.5910337,9.69089193 L98.5910337,9.30009607 L103.785174,9.30009607 L103.785174,9.69089193 L101.822207,10.6860032 L96.537273,23.8238877" id="Fill-14"></path>
                <path d="M113.83572,23.3602531 C112.157969,23.3602531 110.721911,23.0895673 109.315134,22.5489818 L109.285587,18.5811945 L109.896477,18.5211877 C111.545748,21.3774076 112.798405,22.4588406 114.416266,22.4588406 C115.851791,22.4588406 116.738713,21.5587382 116.738713,20.1743887 C116.738713,18.6108049 115.119788,18.0107367 113.379217,17.3181689 C111.454979,16.5074217 109.407765,15.604699 109.407765,13.1098302 C109.407765,10.7336649 111.545748,8.83938843 114.661154,8.83938843 C115.851791,8.83938843 117.531938,9.08072591 118.35684,9.38102205 L118.448141,12.9583719 L117.868128,13.1098302 C116.372179,10.673396 115.394222,9.7418491 113.98851,9.7418491 C112.706838,9.7418491 111.912814,10.5835168 111.912814,11.665998 C111.912814,13.2290577 113.563149,13.8613567 115.303188,14.5528763 C117.227425,15.3350613 119.304984,16.2351636 119.304984,18.7905633 C119.304984,21.5880866 116.798604,23.3602531 113.83572,23.3602531" id="Fill-17"></path>
                <path d="M127.868857,18.8252612 L127.916793,18.9363581 L127.141174,19.5561072 C126.781261,19.8420452 126.620951,19.9929496 126.613092,20.5172126 L126.597114,21.3911577 L128.724369,21.3911577 L128.724369,21.0417358 C128.724369,20.5809568 128.556724,20.3980501 128.028381,20.2312747 L127.764865,20.1519197 L127.764865,20.0088206 L129.956297,20.0088206 L129.956297,20.1519197 L129.707973,20.2312747 C129.188536,20.3980501 129.00465,20.5809568 129.00465,21.0417358 L129.00465,21.3911577 L131.139764,21.3911577 L131.115927,20.2075983 C131.107807,19.7546246 130.955879,19.5719782 130.644164,19.3255876 L129.780531,18.6582255 L129.812489,18.539063 L131.420045,18.7219697 L131.420045,23.1229167 L131.283834,23.1229167 L131.115927,22.3842653 L126.629071,22.3842653 L126.461164,23.1229167 L126.324953,23.1229167 L126.324953,18.9761657 L127.868857,18.8252612" id="Fill-19"></path>
                <path d="M131.539911,16.0918606 C131.539911,16.5685107 131.41994,16.9894821 131.259892,17.2993567 L131.539911,17.6092312 L131.539911,17.7523303 L129.764186,17.8475562 L129.748207,17.6807808 C130.89998,17.1801942 131.26775,16.5924472 131.26775,16.0442477 C131.26775,15.4721115 130.891859,15.1385606 130.387877,15.1385606 C129.907994,15.1385606 129.676173,15.3212071 129.364458,16.0679241 C129.260204,16.3221201 129.156474,16.6161236 129.036503,16.8625142 C128.756746,17.4185192 128.316678,17.7125227 127.732803,17.7125227 C126.781156,17.7125227 126.205139,16.8942562 126.205139,16.0918606 C126.205139,15.6945656 126.31699,15.4244986 126.46918,15.162237 L126.197281,14.8526226 L126.197281,14.7175891 L127.76476,14.5825556 L127.788597,14.7412655 C126.908985,15.178108 126.477038,15.6469526 126.477038,16.1634102 C126.477038,16.6161236 126.781156,16.9179326 127.252919,16.9179326 C127.62881,16.9179326 127.916688,16.7592227 128.16475,16.1951522 C128.292317,15.9170196 128.404691,15.5912741 128.548761,15.2972705 C128.860214,14.653845 129.268586,14.352036 129.860058,14.352036 C130.915958,14.352036 131.539911,15.2337865 131.539911,16.0918606" id="Fill-21"></path>
                <path d="M127.980891,8.98922899 L127.180911,9.5931071 C126.732985,9.94252902 126.613014,10.1093045 126.597035,10.514405 L126.597035,10.8242795 L131.115849,10.8242795 L131.283755,10.0458205 L131.419967,10.0458205 L131.419967,12.6036515 L131.283755,12.6036515 L131.115849,11.8251925 L126.597035,11.8251925 L126.597035,12.18268 C126.613014,12.5799751 126.732985,12.7467506 127.180911,13.0964327 L127.980891,13.7000506 L127.940551,13.8272787 L126.325136,13.5808881 L126.325136,9.10839149 L127.940551,8.85419549 L127.980891,8.98922899" id="Fill-23"></path>
                <path d="M131.547848,8.55933334 C131.547848,8.84527132 131.307907,9.08359632 131.019767,9.08359632 C130.732151,9.08359632 130.500068,8.84527132 130.500068,8.55933334 C130.500068,8.26558996 130.732151,8.03507036 131.019767,8.03507036 C131.307907,8.03507036 131.547848,8.26558996 131.547848,8.55933334" id="Fill-25"></path>
                <polygon id="Fill-27" points="138.926551 20.4935623 139.054118 20.4935623 139.054118 23.0753298 138.926551 23.0753298 138.614313 22.2172557 134.823444 22.2172557 134.447291 23.0831352 134.351681 23.0831352 134.087379 21.3911837 134.11174 21.3516364 138.614313 21.3516364"></polygon>
                <polygon id="Fill-29" points="134.9672 19.460465 135.439225 19.8655655 135.415126 19.9449204 133.959759 19.730532 133.927802 19.6509168 134.159361 19.476336 134.159361 16.6403724 134.231658 16.5927595 139.174561 18.8646524 139.174561 19.682919 137.222808 18.5230359 134.9672 17.2598613"></polygon>
                <path d="M135.351159,14.6059719 L135.351159,14.6218428 L137.03075,15.9802434 L137.03075,14.6059719 L135.351159,14.6059719 Z M137.646845,13.7320268 L138.614208,13.7320268 L138.926446,12.9059548 L139.054275,12.9059548 L139.054275,15.448175 L138.926446,15.448175 L138.614208,14.6059719 L137.646845,14.6059719 L137.646845,16.608058 L137.502513,16.671542 L134.039338,13.8511893 L134.087536,13.7320268 L137.03075,13.7320268 L137.03075,12.8742128 L137.646845,12.8742128 L137.646845,13.7320268 Z" id="Fill-31"></path>
                <path d="M135.351159,10.3155493 L135.351159,10.3314203 L137.03075,11.6898208 L137.03075,10.3155493 L135.351159,10.3155493 Z M137.646845,9.4416042 L138.614208,9.4416042 L138.926446,8.61553225 L139.054275,8.61553225 L139.054275,11.1574922 L138.926446,11.1574922 L138.614208,10.3155493 L137.646845,10.3155493 L137.646845,12.3173753 L137.502513,12.3808593 L134.039338,9.5607667 L134.087536,9.4416042 L137.03075,9.4416042 L137.03075,8.58379027 L137.646845,8.58379027 L137.646845,9.4416042 Z" id="Fill-33"></path>
            </g>
        </g>
    </g>
</svg>