<?xml version="1.0" encoding="UTF-8"?>
<svg width="45px" height="44px" viewBox="0 0 45 44" version="1.1" xmlns="http://www.w3.org/2000/svg" xmlns:xlink="http://www.w3.org/1999/xlink">
    <!-- Generator: Sketch 52.4 (67378) - http://www.bohemiancoding.com/sketch -->
    <title>Twitter</title>
    <desc>Created with Sketch.</desc>
    <g id="Symbols" stroke="none" stroke-width="1" fill="none" fill-rule="evenodd">
        <g id="Socialmedia/5" transform="translate(-70.000000, 0.000000)">
            <g id="Twitter" transform="translate(70.000000, 0.000000)">
                <rect id="Rectangle-9-Copy-14" x="0" y="0" width="44" height="44"></rect>
                <path d="M35.2271859,10.4437899 C34.1160748,11.1373589 32.8888889,11.6416298 31.5769378,11.9118311 C30.5315006,10.7351988 29.0378007,10 27.3844979,10 C24.2145857,10 21.641848,12.7130093 21.641848,16.0583211 C21.641848,16.5335297 21.6914853,16.9945999 21.7899962,17.4383898 C17.0156548,17.1854688 12.7835052,14.7756505 9.94883543,11.1059401 C9.45399007,12.003731 9.17143948,13.0460481 9.17143948,14.1551301 C9.17143948,16.2562592 10.185567,18.1107511 11.7273769,19.19784 C10.7873234,19.1679921 9.89919817,18.8930781 9.12409317,18.4422189 L9.12409317,18.5168385 C9.12409317,21.452921 11.1042383,23.9027982 13.7334861,24.4573392 C13.2523864,24.5995091 12.744559,24.6702013 12.2199313,24.6702013 C11.8503246,24.6702013 11.489118,24.6340697 11.1386025,24.562592 C11.8701795,26.9692685 13.9900725,28.7216495 16.5047728,28.7679921 C14.5391371,30.3946981 12.0603284,31.3631811 9.36998855,31.3631811 C8.90721649,31.3631811 8.4482627,31.3356897 8,31.2799215 C10.5421917,32.9961708 13.5631921,34 16.805651,34 C27.3730431,34 33.1500573,24.7691703 33.1500573,16.7621011 C33.1500573,16.4989691 33.1447117,16.2350515 33.1347843,15.9774178 C34.2573501,15.1220422 35.2317679,14.056161 36,12.8410407 C34.9705995,13.3233186 33.8633066,13.6492882 32.7010309,13.7945999 C33.8877434,13.0460481 34.7980145,11.8584192 35.2271859,10.4437899" fill="#00253E"></path>
            </g>
        </g>
    </g>
</svg>