<?xml version="1.0" encoding="UTF-8"?>
<svg width="44px" height="44px" viewBox="0 0 44 44" version="1.1" xmlns="http://www.w3.org/2000/svg" xmlns:xlink="http://www.w3.org/1999/xlink">
    <!-- Generator: Sketch 52.4 (67378) - http://www.bohemiancoding.com/sketch -->
    <title>Weibo</title>
    <desc>Created with Sketch.</desc>
    <g id="Symbols" stroke="none" stroke-width="1" fill="none" fill-rule="evenodd">
        <g id="Socialmedia/5" transform="translate(-274.000000, 0.000000)">
            <g id="Weibo" transform="translate(274.000000, 0.000000)">
                <path d="M29.3878136,21.3205774 C28.9681983,21.1937764 28.6801967,21.1066288 28.9000689,20.5485702 C29.3756476,19.3356721 29.4251963,18.2894523 28.9091381,17.5432085 C27.9418331,16.1436935 25.2947397,16.2189676 22.2603262,17.5055715 C22.2603262,17.5040033 21.3076203,17.928092 21.5511609,17.1623576 C22.0178916,15.6427625 21.9475502,14.3700484 21.2213525,13.6352302 C19.5754077,11.9668793 15.1978714,13.6984067 11.4434538,17.4990746 C8.63223046,20.3464952 7,23.3644025 7,25.9739033 C7,30.9655144 13.3201096,34 19.5030755,34 C27.6082644,34 33,29.2304025 33,25.4440725 C33,23.1562787 31.0974639,21.8578012 29.3878136,21.3205774 M19.5196655,32.2113449 C14.5860338,32.7037628 10.3272815,30.445989 10.0065424,27.1648465 C9.68624565,23.8848241 13.4273913,20.8254712 18.3601382,20.3314852 C23.2944334,19.8368271 27.5534069,22.095945 27.8734824,25.3752953 C28.1933368,28.6571099 24.4537395,31.7173589 19.5196655,32.2113449" id="Fill-3-Copy-2" fill="#00253E"></path>
                <path d="M35.8595892,12.5770006 C33.7985675,10.4291063 30.7582809,9.61067316 27.9516296,10.1714028 L27.9506979,10.1714028 C27.3019699,10.3016777 26.887343,10.9022561 27.0271049,11.5118114 C27.1650032,12.1211478 27.803715,12.5110968 28.4529089,12.3806029 C30.4491743,11.9821149 32.6096598,12.5656152 34.0757619,14.0908172 C35.5395345,15.6164572 35.9369241,17.6977908 35.3100921,19.5218589 L35.310325,19.5225157 C35.1058068,20.1171825 35.4514845,20.7527928 36.0846058,20.9448115 C36.7153977,21.1368302 37.3927769,20.8116902 37.5972951,20.219213 C37.5972951,20.2183372 37.5972951,20.2163666 37.5975281,20.2150529 C38.477329,17.6478704 37.9220085,14.7229244 35.8595892,12.5770006" id="Fill-6-Copy-3" fill="#00253E"></path>
                <path d="M32.0882557,15.3319057 C31.2100078,14.2210007 29.9137408,13.7985963 28.7165749,14.0888831 C28.2269828,14.2077425 27.9152017,14.7569147 28.0204202,15.3158562 C28.1250269,15.8715413 28.6062587,16.2292825 29.0940156,16.108097 L29.0940156,16.1092601 C29.6792423,15.9676057 30.3136118,16.1734581 30.7432538,16.7154197 C31.1730998,17.2592421 31.2887178,17.9998454 31.1039737,18.6495015 L31.1045854,18.6495015 C30.9512438,19.1914631 31.2112313,19.7741299 31.6871613,19.9502093 C32.1634992,20.1241953 32.6736864,19.8278609 32.8272319,19.2849689 C33.203653,17.9558837 32.9683389,16.4428107 32.0882557,15.3316731" id="Fill-8-Copy-2" fill="#00253E"></path>
                <path d="M20.803829,23.1571241 C18.3191775,22.5644799 15.5107768,23.6991479 14.4316131,25.7055155 C13.3325516,27.7513498 14.3953288,30.0224017 16.9052623,30.7649765 C19.5057894,31.533076 22.5702866,30.3557239 23.6363411,28.1477329 C24.6871797,25.9886463 23.3748605,23.7660697 20.803829,23.1571241 M18.90628,28.3819592 C18.4013437,29.1202442 17.3198391,29.4436996 16.5049652,29.1030847 C15.7024981,28.7682611 15.4655971,27.9102891 15.9707674,27.1906651 C16.4696173,26.4740439 17.5146036,26.1542349 18.3233911,26.4650352 C19.1410742,26.7842008 19.4025548,27.636167 18.90628,28.3819592 M20.5699712,26.4251395 C20.3873795,26.7117022 19.983571,26.8491922 19.6675469,26.7297196 C19.3562046,26.6126064 19.2588224,26.2925828 19.4355618,26.0113825 C19.6176853,25.7316836 20.0058097,25.5950516 20.3159815,25.7076604 C20.6313033,25.81362 20.7443697,26.1375044 20.5699712,26.4251395" id="Fill-10-Copy-2" fill="#00253E"></path>
                <rect id="Rectangle-9-Copy-12" x="0" y="0" width="44" height="44"></rect>
            </g>
        </g>
    </g>
</svg>